<?xml version="1.0" encoding="UTF-8"?>
<svg width="306px" height="50px" viewBox="0 0 306 50" version="1.1" xmlns="http://www.w3.org/2000/svg" xmlns:xlink="http://www.w3.org/1999/xlink">
    <!-- Generator: Sketch 52.4 (67378) - http://www.bohemiancoding.com/sketch -->
    <title>USS-logotipo</title>
    <desc>Created with Sketch.</desc>
    <g id="Page-1" stroke="none" stroke-width="1" fill="none" fill-rule="evenodd">
        <g id="USS-logotipo" fill="#444444">
            <rect id="Rectangle" x="81.9" y="2.7" width="1.7" height="44.5"></rect>
            <path d="M45.5,47.3 C46.3,47.4 47.1,47.5 48,47.5 C51.6,47.5 54.4,46.6 56.4,44.8 C58.5,43 59.5,40.5 59.5,37.4 C59.5,35.1 58.9,33.3 57.8,31.8 C56.7,30.3 54.8,29 52.1,27.8 C50.8,27.2 48.8,26.4 46.2,25.4 C43.6,24.4 41.9,23.6 41,23 C39.1,21.7 37.7,20.2 36.9,18.6 C36.1,17 35.7,14.9 35.7,12.5 C35.7,8.6 37,5.5 39.7,3.3 C42.4,1.1 46,0 50.7,0 C52.6,0 54.5,0.2 56.3,0.5 C58.2,0.8 59.9,1.3 61.5,1.9 L62.4,2.2 C62.7,2.3 62.9,2.4 63,2.5 C63.1,2.6 63.2,2.8 63.2,3.1 L63.2,13 C63.2,13.4 63.1,13.7 62.9,13.8 C62.7,13.9 62.2,14 61.6,14 C60.7,14 60.1,13.7 59.7,13 C59.3,12.3 59.1,11.2 59.1,9.5 C59.2,8.9 59,8 58.5,7 C58,6 57.5,5.2 56.8,4.5 C56,3.8 55.1,3.3 54,2.9 C53,2.6 51.8,2.4 50.4,2.4 C47.5,2.4 45.2,3.1 43.6,4.6 C42,6 41.2,8.1 41.2,10.7 C41.2,12.8 41.6,14.5 42.5,15.8 C43.4,17.1 44.8,18.2 46.8,19.1 C48.3,19.8 50.4,20.6 53.1,21.5 C55.8,22.5 57.6,23.2 58.5,23.8 C61,25.4 62.7,27 63.7,28.7 C64.7,30.4 65.2,32.5 65.2,35.1 C65.2,39.8 63.7,43.4 60.6,46 C57.5,48.6 53.3,49.9 47.8,49.9 C46.1,49.9 44.3,49.7 42.4,49.4 C42.1,49.3 41.8,49.3 41.5,49.2 C42.8,48.9 44.1,48.4 45.5,47.3" id="Path"></path>
            <path d="M5.8,33.6 L5.8,8.3 C5.8,6.6 5.6,5.4 5.2,4.8 C4.8,4.1 4.1,3.8 3.1,3.7 L1.2,3.5 C0.4,3.5 0,3 0,2.2 C0,1.7 0.1,1.3 0.2,1.2 C0.3,1.1 0.6,1 1.2,1 C1.3,1 1.7,1 2.2,1.1 C4.4,1.2 6.5,1.3 8.6,1.3 C10.6,1.3 12.8,1.2 15,1.1 C15.6,1.1 15.9,1 16,1 C16.5,1 16.8,1.1 16.9,1.2 C17,1.3 17,1.7 17,2.2 C17,3 16.6,3.5 15.9,3.5 L14,3.6 C13,3.7 12.3,4 11.9,4.8 C11.5,5.5 11.3,6.7 11.3,8.3 L11.3,32.7 C11.3,38.1 12.2,41.9 14,44.1 C15.8,46.3 18,47.4 22.4,47.4 C26.8,47.4 30.1,46.3 32.2,44 C34.3,41.7 35.4,38.2 35.4,33.5 L35.4,33.3 L35.4,24.8 C36,25.6 37.7,25.7 38.4,26.3 L38.4,30.2 C38.4,34.7 38.1,38.2 37.4,40.5 C36.7,42.8 35.6,44.7 34,46.3 C32.7,47.6 31.1,48.5 29.1,49.1 C27.1,49.7 24.6,50 21.7,50 C15.7,50 12.3,48.7 9.8,46.2 C7.1,43.7 5.8,39.5 5.8,33.6" id="Path"></path>
            <path d="M29.8,47.2 C30.7,47.4 31.7,47.5 32.8,47.5 C36.3,47.5 39.2,46.6 41.2,44.8 C43.3,43 44.3,40.5 44.3,37.4 C44.3,35.1 43.7,33.3 42.6,31.8 C41.5,30.3 39.6,29 36.9,27.8 C35.6,27.2 33.6,26.4 31,25.4 C28.4,24.4 26.7,23.6 25.8,23 C23.9,21.7 22.5,20.2 21.7,18.6 C20.9,17 20.5,14.9 20.5,12.5 C20.5,8.6 21.8,5.5 24.5,3.3 C27.1,1.1 30.8,3.55271368e-15 35.5,3.55271368e-15 C37.4,3.55271368e-15 39.3,0.2 41.1,0.5 C41.5,0.6 41.9,0.7 42.3,0.7 C40.8,1.1 39.4,1.5 38,2.7 C37.1,2.5 36.2,2.4 35.1,2.4 C32.2,2.4 29.9,3.1 28.3,4.6 C26.9,6 26,8.1 26,10.7 C26,12.8 26.4,14.5 27.3,15.8 C28.2,17.1 29.6,18.2 31.6,19.1 C33.1,19.8 35.2,20.6 37.9,21.5 C40.6,22.5 42.4,23.2 43.3,23.8 C45.8,25.4 47.5,27 48.5,28.7 C49.5,30.4 50,32.5 50,35.1 C50,39.8 48.5,43.4 45.4,46 C42.3,48.6 38,49.9 32.6,49.9 C30.9,49.9 29.1,49.7 27.2,49.4 C25.9,49.2 24.4,48.8 22.8,48.3 L29.8,48.3 L29.8,47.2 Z" id="Path"></path>
            <path d="M100,15.9 L100,6.5 C100,5.6 99.9,5 99.8,4.7 C99.7,4.5 99.4,4.3 99,4.3 L98.3,4.2 C98,4.2 97.8,4 97.8,3.6 C97.8,3.4 97.8,3.2 97.9,3.1 C98,3 98.1,3 98.3,3 C98.3,3 98.5,3 98.7,3 C99.8,3.1 101,3.1 102.1,3.1 C103.2,3.1 104.4,3.1 105.5,3 C105.7,3 105.8,3 105.9,3 C106.1,3 106.3,3 106.3,3.1 C106.4,3.2 106.4,3.3 106.4,3.6 C106.4,4 106.2,4.2 105.9,4.2 L105.2,4.3 C104.8,4.3 104.6,4.5 104.4,4.7 C104.3,4.9 104.2,5.5 104.2,6.5 L104.2,16.3 C104.2,18.1 104.6,19.4 105.3,20.2 C106,21 107.2,21.4 108.9,21.4 C109.7,21.4 110.5,21.3 111.1,21.1 C111.7,20.9 112.3,20.5 112.8,20.1 C113.3,19.7 113.6,19 113.8,18.2 C114,17.4 114.1,16.1 114.1,14.2 C114.1,12.4 114.1,10.7 114,9.2 C114,7.7 113.9,6.8 113.9,6.4 C113.8,5.7 113.7,5.1 113.5,4.8 C113.3,4.5 113,4.3 112.6,4.3 L111.9,4.2 C111.9,4.2 111.9,4.2 111.8,4.2 C111.5,4.2 111.4,4 111.4,3.6 C111.4,3.3 111.4,3.2 111.5,3.1 C111.6,3 111.7,3 111.9,3 C112,3 112.3,3 112.9,3.1 C113.5,3.1 114.1,3.2 114.6,3.2 C115.4,3.2 116.2,3.2 117.1,3.1 C117.4,3.1 117.5,3.1 117.6,3.1 C117.8,3.1 118,3.1 118,3.2 C118.1,3.3 118.1,3.4 118.1,3.7 C118.1,4 118,4.2 117.8,4.3 C117.7,4.3 117.7,4.3 117.7,4.3 L117.2,4.4 C116.3,4.5 115.9,6.7 115.8,10.8 C115.8,11.6 115.8,12.3 115.8,12.7 C115.8,13 115.8,13.3 115.8,13.8 C115.8,16.9 115.5,18.9 114.9,19.9 C114.3,20.9 113.5,21.6 112.5,22 C111.5,22.4 110.1,22.7 108.3,22.7 C105.3,22.7 103.3,22.2 102.1,21.2 C100.6,20.2 100,18.4 100,15.9" id="Path"></path>
            <path d="M122.6,14.9 L122.6,5.9 C122.6,5.5 122.5,5.1 122.3,4.8 C122.1,4.5 121.9,4.3 121.6,4.3 L120.9,4.2 C120.5,4.2 120.4,4 120.4,3.6 C120.4,3.4 120.4,3.2 120.5,3.1 C120.6,3 120.7,3 120.9,3 C120.9,3 121.2,3 121.8,3 C122.4,3 122.9,3 123.5,3 C123.9,3 124.3,3 124.8,3 C125.2,3 125.5,3 125.6,3 C125.8,3 125.9,3 126,3 C126.1,3 126.1,3 126.1,3.1 C126.1,3.1 126.2,3.2 126.3,3.4 C126.8,4.1 127.3,4.8 127.8,5.6 L136.9,17.5 C136.9,17.1 136.9,16.6 136.9,15.8 C136.9,11.1 136.8,8.3 136.8,7.3 C136.8,6.1 136.6,5.3 136.4,4.9 C136.2,4.5 135.9,4.3 135.5,4.2 L134.8,4.1 C134.8,4.1 134.8,4.1 134.7,4.1 C134.4,4.1 134.3,3.9 134.3,3.5 C134.3,3.3 134.3,3.1 134.4,3 C134.5,2.9 134.6,2.9 134.8,2.9 C134.9,2.9 135.2,2.9 135.8,3 C136.4,3 137,3.1 137.5,3.1 C138,3.1 138.6,3.1 139.2,3 C139.8,3 140.1,2.9 140.2,2.9 C140.4,2.9 140.6,2.9 140.6,3 C140.7,3.1 140.7,3.2 140.7,3.5 C140.7,3.8 140.6,4 140.4,4.1 C140.3,4.1 140.3,4.1 140.2,4.1 L139.7,4.2 C139.4,4.3 139.1,4.4 138.9,4.7 C138.7,4.9 138.6,5.3 138.5,5.8 C138.4,6.3 138.4,7.3 138.3,9 C138.3,10.7 138.2,12.6 138.2,14.6 C138.2,16.7 138.2,18.8 138.3,20.9 C138.3,21.2 138.3,21.4 138.3,21.5 C138.3,21.8 138.3,21.9 138.2,22 C138.1,22.1 138,22.2 137.9,22.2 C137.9,22.2 137.7,22.2 137.5,22.2 C137.3,22.2 137.1,22.2 136.9,22.2 C136.9,22.2 136.9,22.2 136.8,22.2 C136.8,22.2 136.7,22.2 136.7,22.2 C136.5,22.2 136.3,22.2 136.1,22.2 C135.8,22.2 135.7,22.2 135.6,22.2 C135.3,22.2 134.8,21.7 134.2,20.8 C133.7,20 133.2,19.3 132.8,18.7 L123.9,7 C123.9,8 123.9,9.5 124,11.3 C124.1,14.8 124.1,17 124.1,18 C124.1,19.2 124.3,20 124.5,20.4 C124.7,20.8 125,21 125.4,21.1 L126.1,21.2 C126.1,21.2 126.1,21.2 126.2,21.2 C126.5,21.2 126.6,21.4 126.6,21.8 C126.6,22 126.6,22.2 126.5,22.3 C126.4,22.4 126.3,22.4 126.1,22.4 C126,22.4 125.7,22.4 125.1,22.3 C124.5,22.3 123.9,22.2 123.4,22.2 C122.9,22.2 122.3,22.2 121.7,22.3 C121.1,22.3 120.8,22.4 120.7,22.4 C120.5,22.4 120.4,22.4 120.3,22.3 C120.2,22.2 120.2,22.1 120.2,21.8 C120.2,21.5 120.3,21.3 120.5,21.2 C120.6,21.2 120.6,21.2 120.7,21.2 L121.3,21.1 C122.1,21 122.6,19.2 122.6,15.8 L122.6,14.9 Z" id="Path"></path>
            <path d="M145.5,18.9 L145.5,6.5 C145.5,5.5 145.4,4.9 145.3,4.7 C145.2,4.5 144.9,4.3 144.5,4.3 L143.8,4.2 C143.5,4.2 143.3,4 143.3,3.6 C143.3,3.4 143.3,3.2 143.4,3.1 C143.5,3 143.6,3 143.8,3 C143.8,3 144,3 144.2,3 C145.4,3.1 146.5,3.1 147.7,3.1 C148.8,3.1 150,3.1 151.1,3 C151.3,3 151.4,3 151.5,3 C151.7,3 151.9,3 151.9,3.1 C152,3.2 152,3.3 152,3.6 C152,4 151.8,4.2 151.5,4.2 L150.8,4.3 C150.4,4.3 150.2,4.5 150,4.7 C149.9,4.9 149.8,5.5 149.8,6.5 L149.8,19.1 C149.8,19.9 149.9,20.5 150,20.7 C150.1,20.9 150.4,21 150.8,21.1 L151.5,21.2 C151.5,21.2 151.6,21.2 151.6,21.2 C151.9,21.2 152,21.4 152,21.8 C152,22 152,22.2 151.9,22.3 C151.8,22.4 151.7,22.4 151.5,22.4 C151.5,22.4 151.3,22.4 151.1,22.4 C150,22.3 148.9,22.3 147.7,22.3 C146.5,22.3 145.4,22.3 144.2,22.4 C144,22.4 143.9,22.4 143.8,22.4 C143.6,22.4 143.4,22.4 143.4,22.3 C143.3,22.2 143.3,22.1 143.3,21.8 C143.3,21.5 143.4,21.3 143.7,21.2 C143.7,21.2 143.8,21.2 143.8,21.2 L144.5,21.1 C144.9,21.1 145.1,20.9 145.3,20.7 C145.4,20.5 145.5,20 145.5,19.1 L145.5,18.9 Z" id="Path"></path>
            <path d="M161.5,21.7 L156.8,7.9 C156.3,6.4 155.9,5.5 155.6,5.1 C155.3,4.7 155,4.4 154.7,4.4 L154.3,4.3 C154.2,4.3 154.2,4.3 154.1,4.3 C153.9,4.3 153.8,4.1 153.8,3.7 C153.8,3.5 153.8,3.3 153.9,3.2 C154,3.1 154.1,3.1 154.3,3.1 C154.3,3.1 154.4,3.1 154.6,3.1 C155.7,3.2 156.9,3.2 158,3.2 C159.2,3.2 160.3,3.2 161.5,3.1 C161.7,3.1 161.8,3.1 161.8,3.1 C162,3.1 162.1,3.1 162.2,3.2 C162.3,3.3 162.3,3.4 162.3,3.7 C162.3,4.1 162.2,4.2 161.9,4.3 C161.9,4.3 161.8,4.3 161.8,4.3 L161.4,4.4 C161,4.4 160.8,4.6 160.6,4.8 C160.4,5 160.3,5.3 160.3,5.6 C160.3,5.8 160.3,6 160.4,6.3 C160.5,6.6 160.6,6.9 160.7,7.3 L164.5,18.7 L168.2,7.5 C168.3,7.2 168.4,6.9 168.4,6.6 C168.5,6.3 168.5,6 168.5,5.7 C168.5,5.3 168.4,5 168.2,4.8 C168,4.6 167.7,4.5 167.3,4.4 L166.8,4.4 C166.5,4.4 166.4,4.2 166.4,3.8 C166.4,3.5 166.4,3.4 166.5,3.3 C166.6,3.2 166.7,3.2 167,3.2 C167,3.2 167.2,3.2 167.4,3.2 C168.1,3.3 168.9,3.3 169.6,3.3 C170.3,3.3 171,3.3 171.8,3.2 C172,3.2 172.1,3.2 172.1,3.2 C172.4,3.2 172.5,3.2 172.6,3.3 C172.7,3.4 172.7,3.5 172.7,3.8 C172.7,4.1 172.6,4.3 172.3,4.4 C172.3,4.4 172.2,4.4 172.2,4.4 L172,4.4 C171.6,4.4 171.3,4.7 170.9,5.2 C170.6,5.7 170.1,6.7 169.6,8.2 L164.8,21.8 C164.8,21.8 164.8,21.9 164.8,21.9 C164.7,22.3 164.5,22.5 164.3,22.5 L164.2,22.5 C163.9,22.5 163.6,22.5 163.3,22.5 C163,22.5 162.7,22.5 162.3,22.5 L162.2,22.5 C161.9,22.4 161.7,22.2 161.5,21.7 Z" id="Path"></path>
            <path d="M176.6,18.9 L176.6,6.5 C176.6,5.5 176.5,4.9 176.4,4.7 C176.3,4.5 176,4.3 175.6,4.3 L174.9,4.2 C174.5,4.2 174.4,4 174.4,3.6 C174.4,3.4 174.4,3.2 174.5,3.1 C174.6,3 174.7,3 174.9,3 C174.9,3 175.1,3 175.3,3 C176.8,3.1 178.3,3.1 179.9,3.1 C182.5,3.1 185.1,3.1 187.5,3 C187.9,3 188.1,3 188.1,3 L188.8,3 C189,3 189.1,3 189.2,3.1 C189.3,3.2 189.3,3.3 189.3,3.5 C189.3,3.5 189.3,3.6 189.3,3.7 C189.3,4.3 189.3,5 189.3,5.7 C189.3,6.1 189.3,6.5 189.3,6.9 C189.3,7 189.3,7 189.3,7.1 C189.3,7.2 189.3,7.3 189.2,7.4 C189.1,7.5 189,7.5 188.8,7.5 L188,7.5 C187.6,7.5 187.4,7.3 187.3,6.8 C187.3,6.7 187.2,6.5 187.2,6.5 C187,5.6 186.7,5 186.3,4.7 C185.9,4.4 185.2,4.3 184.1,4.3 L180.8,4.3 C180.7,4.8 180.7,5.3 180.7,5.7 C180.7,6.1 180.7,6.5 180.7,6.9 L180.7,11.3 C180.8,11.3 181,11.3 181.1,11.3 C181.2,11.3 181.5,11.3 181.7,11.3 C182.4,11.3 183,11.2 183.3,11 C183.6,10.8 183.9,10.5 184,10 C184.1,9.8 184.1,9.5 184.1,9.1 C184.1,8.7 184.3,8.5 184.7,8.5 L185.4,8.5 C185.6,8.5 185.7,8.5 185.8,8.6 C185.9,8.6 185.9,8.7 185.9,8.8 C185.9,8.8 185.9,8.9 185.9,8.9 C185.9,9.2 185.9,9.5 185.9,9.8 L185.9,11.9 L185.9,13.5 C185.9,14 185.9,14.4 186,14.9 L186,15 C186,15.1 186,15.1 185.9,15.2 C185.8,15.2 185.7,15.3 185.5,15.3 L184.8,15.3 C184.5,15.3 184.3,15.1 184.2,14.7 C184.2,14.4 184.1,14.1 184.1,13.8 C183.9,13.3 183.7,13 183.4,12.8 C183.1,12.6 182.5,12.5 181.8,12.5 C181.5,12.5 181.3,12.5 181.2,12.5 C181.1,12.5 180.9,12.5 180.8,12.5 L180.8,17.8 C180.8,18.2 180.8,18.9 180.8,19.9 C180.8,20.3 180.8,20.6 180.8,20.8 C181,20.8 181.1,20.9 181.3,20.9 C181.5,20.9 181.7,20.9 181.9,20.9 L184.1,20.9 C185.3,20.9 186,20.8 186.4,20.5 C186.8,20.2 187.1,19.5 187.4,18.3 C187.5,18.1 187.5,17.9 187.5,17.6 C187.6,17.1 187.8,16.8 188.2,16.8 L189.1,16.8 C189.3,16.8 189.4,16.9 189.4,17 C189.5,17.1 189.5,17.3 189.5,17.5 L189.5,21.5 C189.5,21.8 189.5,22.1 189.4,22.2 C189.3,22.3 189.2,22.3 189,22.3 L188.5,22.3 C188.4,22.3 188.3,22.3 188,22.3 C185.6,22.2 183.1,22.1 180.3,22.1 C178.6,22.1 176.9,22.1 175.3,22.2 C175.1,22.2 174.9,22.2 174.9,22.2 C174.7,22.2 174.5,22.2 174.5,22.1 C174.4,22 174.4,21.9 174.4,21.6 C174.4,21.3 174.6,21.1 174.8,21 C174.8,21 174.9,21 174.9,21 L175.6,20.9 C176,20.9 176.2,20.7 176.4,20.5 C176.5,20.3 176.6,19.8 176.6,18.9 Z" id="Path"></path>
            <path d="M194.8,18.9 L194.8,6.5 C194.8,5.5 194.7,4.9 194.6,4.7 C194.5,4.5 194.2,4.3 193.8,4.3 L193.1,4.2 C192.7,4.2 192.6,4 192.6,3.6 C192.6,3.4 192.6,3.2 192.7,3.1 C192.8,3 192.9,3 193.2,3 C193.3,3 193.4,3 193.7,3 C194.7,3.1 195.7,3.1 196.6,3.1 C197.3,3.1 198.3,3.1 199.8,3 C201.3,3 202.4,2.9 203.2,2.9 C204.9,2.9 206.2,3.2 207,3.9 C207.8,4.6 208.2,5.6 208.2,7 C208.2,8.5 207.8,9.6 207.1,10.4 C206.3,11.2 205.1,11.7 203.3,12 L207.5,18.2 C208.1,19.2 208.6,19.8 209,20.2 C209.4,20.6 209.7,20.8 210.1,20.9 L210.5,21 C210.7,21 210.8,21.1 210.8,21.1 C210.8,21.2 210.9,21.3 210.9,21.6 C210.9,21.8 210.9,22 210.8,22.1 C210.7,22.2 210.6,22.2 210.4,22.2 C210.4,22.2 210.3,22.2 210.1,22.2 C209.4,22.1 208.7,22.1 208,22.1 C207.2,22.1 206.5,22.1 205.7,22.2 C205.6,22.2 205.5,22.2 205.5,22.2 C205.3,22.2 205.1,21.9 204.7,21.3 C204.3,20.5 204,19.9 203.6,19.3 L199.3,12.4 L199.2,12.4 L199.2,19.1 C199.2,19.9 199.3,20.5 199.4,20.7 C199.5,20.9 199.8,21 200.2,21.1 L200.9,21.2 C200.9,21.2 200.9,21.2 201,21.2 C201.3,21.2 201.4,21.4 201.4,21.8 C201.4,22 201.4,22.2 201.3,22.3 C201.2,22.4 201.1,22.4 200.9,22.4 C200.9,22.4 200.7,22.4 200.5,22.4 C199.4,22.3 198.2,22.3 197.1,22.3 C196,22.3 194.8,22.3 193.7,22.4 C193.5,22.4 193.4,22.4 193.3,22.4 C193.1,22.4 192.9,22.4 192.9,22.3 C192.8,22.2 192.8,22.1 192.8,21.8 C192.8,21.5 192.9,21.3 193.2,21.2 C193.2,21.2 193.3,21.2 193.3,21.2 L194,21.1 C194.4,21.1 194.6,20.9 194.8,20.7 C194.9,20.5 195,20 195,19.1 L195,18.9 L194.8,18.9 Z M198.9,11.8 L199.1,11.8 C200.7,11.8 201.9,11.5 202.7,10.8 C203.5,10.2 203.8,9.2 203.8,7.8 C203.8,6.6 203.5,5.7 202.9,5.1 C202.3,4.5 201.3,4.2 200,4.2 C199.8,4.2 199.5,4.2 199.1,4.2 C199,4.2 199,4.2 198.9,4.2 C198.9,4.4 198.9,4.6 198.9,4.8 C198.9,5 198.9,5.3 198.9,5.7 L198.9,11.8 Z" id="Shape" fill-rule="nonzero"></path>
            <path d="M214.2,16.7 L215,16.7 C215.4,16.7 215.6,17 215.7,17.7 C215.7,17.9 215.7,18 215.8,18.1 C216,19.3 216.4,20.1 217,20.6 C217.6,21.1 218.4,21.4 219.5,21.4 C220.8,21.4 221.8,21.1 222.6,20.4 C223.3,19.7 223.7,18.8 223.7,17.7 C223.7,17.2 223.6,16.8 223.5,16.4 C223.4,16 223.2,15.7 222.9,15.5 C222.4,15 221.2,14.5 219.4,14 C218.9,13.9 218.6,13.8 218.3,13.7 C216.7,13.2 215.5,12.5 214.7,11.7 C213.9,10.9 213.5,9.8 213.5,8.5 C213.5,6.7 214.2,5.3 215.5,4.2 C216.8,3.2 218.6,2.6 220.9,2.6 C221.8,2.6 222.7,2.7 223.6,2.8 C224.5,2.9 225.4,3.1 226.2,3.3 C226.4,3.4 226.6,3.4 226.6,3.5 C226.7,3.6 226.7,3.7 226.7,3.9 C226.7,4 226.7,4.4 226.7,4.9 C226.7,5.4 226.7,5.9 226.7,6.3 C226.7,6.4 226.7,6.6 226.7,6.8 C226.7,7 226.7,7.2 226.7,7.3 C226.7,7.5 226.7,7.6 226.6,7.6 C226.6,8 226.4,8 226.2,8 L225.4,8 C225,8 224.8,7.7 224.7,7.2 C224.7,7.1 224.7,7.1 224.7,7.1 C224.5,6 224.2,5.2 223.6,4.7 C223,4.2 222.1,4 221,4 C219.9,4 219.1,4.3 218.4,4.9 C217.8,5.5 217.4,6.2 217.4,7.1 C217.4,7.5 217.5,7.9 217.6,8.3 C217.8,8.7 218,9 218.3,9.3 C218.8,9.8 219.9,10.3 221.4,10.7 C221.8,10.8 222,10.9 222.2,10.9 C224.3,11.5 225.7,12.1 226.5,13 C227.3,13.8 227.7,15 227.7,16.5 C227.7,18.5 227,20.1 225.6,21.2 C224.2,22.3 222.2,22.9 219.6,22.9 C218.6,22.9 217.6,22.8 216.7,22.7 C215.7,22.6 214.8,22.4 214,22.1 C213.7,22 213.6,21.8 213.6,21.3 C213.6,21.2 213.6,21 213.6,20.7 C213.6,20.4 213.6,20.1 213.6,19.9 C213.6,19.2 213.6,18.4 213.5,17.6 C213.5,17.4 213.5,17.3 213.5,17.3 C213.5,17.1 213.6,17 213.6,17 C213.8,16.7 214,16.7 214.2,16.7" id="Path"></path>
            <path d="M233.3,18.9 L233.3,6.5 C233.3,5.5 233.2,4.9 233.1,4.7 C233,4.5 232.7,4.3 232.3,4.3 L231.6,4.2 C231.3,4.2 231.1,4 231.1,3.6 C231.1,3.4 231.1,3.2 231.2,3.1 C231.3,3 231.4,3 231.6,3 C231.6,3 231.8,3 232,3 C233.2,3.1 234.3,3.1 235.5,3.1 C236.6,3.1 237.8,3.1 238.9,3 C239.1,3 239.2,3 239.3,3 C239.5,3 239.7,3 239.7,3.1 C239.8,3.2 239.8,3.3 239.8,3.6 C239.8,4 239.6,4.2 239.3,4.2 L238.6,4.3 C238.2,4.3 238,4.5 237.8,4.7 C237.7,4.9 237.6,5.5 237.6,6.5 L237.6,19.1 C237.6,19.9 237.7,20.5 237.8,20.7 C237.9,20.9 238.2,21 238.6,21.1 L239.3,21.2 C239.3,21.2 239.3,21.2 239.4,21.2 C239.7,21.2 239.8,21.4 239.8,21.8 C239.8,22 239.8,22.2 239.7,22.3 C239.6,22.4 239.5,22.4 239.3,22.4 C239.3,22.4 239.1,22.4 238.9,22.4 C237.8,22.3 236.7,22.3 235.5,22.3 C234.3,22.3 233.2,22.3 232,22.4 C231.8,22.4 231.7,22.4 231.6,22.4 C231.4,22.4 231.2,22.4 231.2,22.3 C231.1,22.2 231.1,22.1 231.1,21.8 C231.1,21.5 231.2,21.3 231.5,21.2 C231.5,21.2 231.6,21.2 231.6,21.2 L232.3,21.1 C232.7,21.1 232.9,20.9 233.1,20.7 C233.2,20.5 233.3,20 233.3,19.1 L233.3,18.9 Z" id="Path"></path>
            <path d="M244.8,6.5 C244.8,5.6 244.7,5 244.6,4.7 C244.5,4.5 244.2,4.3 243.8,4.3 L243.1,4.2 C242.7,4.2 242.6,4 242.6,3.6 C242.6,3.4 242.6,3.2 242.7,3.1 C242.8,3 242.9,3 243.1,3 C243.1,3 243.3,3 243.5,3 C244.6,3.1 245.7,3.1 246.9,3.1 C247.6,3.1 248.7,3.1 250.2,3 C251.7,3 252.8,2.9 253.5,2.9 C254.8,2.9 255.8,3 256.5,3.2 C257.2,3.4 257.8,3.6 258.4,4 C259.4,4.7 260.2,5.7 260.6,6.9 C261.1,8.1 261.3,9.8 261.3,11.8 C261.3,14 261.1,15.7 260.7,17.1 C260.3,18.5 259.7,19.6 258.8,20.4 C258.2,21 257.4,21.4 256.4,21.7 C255.5,22 253.9,22.1 251.8,22.1 C251.2,22.1 250.3,22.1 249.2,22 C248,22 247.1,21.9 246.5,21.9 C245.6,21.9 244.7,21.9 243.7,22 C243.4,22 243.3,22 243.2,22 C243,22 242.8,22 242.8,21.9 C242.7,21.8 242.7,21.7 242.7,21.4 C242.7,21.1 242.9,20.9 243.1,20.8 C243.1,20.8 243.2,20.8 243.2,20.8 L243.9,20.7 C244.3,20.7 244.6,20.5 244.7,20.3 C244.8,20.1 244.9,19.5 244.9,18.5 L244.9,6.5 L244.8,6.5 Z M248.9,4.4 C248.9,4.8 248.9,5.2 248.8,5.7 C248.8,6.1 248.8,6.6 248.8,7 L248.8,18.2 C248.8,18.7 248.8,19.1 248.8,19.6 C248.8,20 248.8,20.5 248.9,21 L249,21 C249.7,21.1 250.2,21.1 250.5,21.1 C252.7,21.1 254.3,20.4 255.3,19.1 C256.3,17.8 256.8,15.6 256.8,12.7 C256.8,9.6 256.3,7.5 255.4,6.2 C254.5,5 252.9,4.3 250.7,4.3 C250.2,4.3 249.9,4.3 249.6,4.3 C249.4,4.4 249.2,4.4 248.9,4.4 Z" id="Shape" fill-rule="nonzero"></path>
            <path d="M266.2,17.2 L271.2,3.6 C271.2,3.6 271.2,3.5 271.2,3.5 C271.3,3.1 271.5,2.9 271.7,2.9 L271.8,2.9 C272.1,2.9 272.5,3 272.8,3 C273.1,3 273.5,3 273.8,2.9 L273.9,2.9 C274.1,2.9 274.3,3.1 274.4,3.4 C274.4,3.5 274.4,3.5 274.5,3.6 L279.3,17.4 C279.7,18.7 280.1,19.6 280.4,20.1 C280.7,20.6 281.1,20.9 281.4,21 L281.9,21.1 C281.9,21.1 282,21.1 282,21.1 C282.2,21.1 282.3,21.2 282.3,21.2 C282.3,21.2 282.4,21.2 282.4,21.3 C282.4,21.4 282.4,21.5 282.4,21.7 C282.4,21.9 282.4,22.1 282.3,22.2 C282.2,22.3 282.1,22.3 281.9,22.3 C281.9,22.3 281.7,22.3 281.5,22.3 C280.3,22.2 279.1,22.2 277.9,22.2 C276.7,22.2 275.5,22.2 274.3,22.3 C274.1,22.3 274,22.3 273.9,22.3 C273.7,22.3 273.5,22.3 273.5,22.2 C273.4,22.1 273.4,22 273.4,21.7 C273.4,21.4 273.4,21.3 273.5,21.2 C273.6,21.1 273.7,21.1 274,21.1 L274.4,21.1 C274.8,21.1 275.2,21 275.4,20.8 C275.6,20.6 275.7,20.3 275.7,20 C275.7,19.8 275.7,19.5 275.6,19.2 C275.5,18.9 275.4,18.6 275.3,18.3 L274,14.6 L268.5,14.6 L267.1,19 C267,19.2 267,19.4 267,19.6 C267,19.8 267,20 267,20.1 C267,20.4 267.1,20.7 267.3,20.9 C267.5,21.1 267.8,21.2 268.2,21.2 L268.8,21.3 C269.2,21.3 269.3,21.5 269.3,21.9 C269.3,22.1 269.3,22.3 269.2,22.4 C269.1,22.5 269,22.5 268.8,22.5 C268.7,22.5 268.6,22.5 268.3,22.5 C267.4,22.4 266.5,22.4 265.8,22.4 C265,22.4 264.2,22.4 263.3,22.5 C263,22.5 262.9,22.5 262.8,22.5 C262.6,22.5 262.4,22.5 262.4,22.4 C262.3,22.3 262.3,22.2 262.3,21.9 C262.3,21.5 262.5,21.3 262.8,21.3 L263.2,21.3 C263.8,21.3 264.2,21 264.6,20.5 C265.2,19.7 265.7,18.7 266.2,17.2 Z M269.2,13.1 L273.9,13.1 L271.7,6.4 L271.5,6.4 L269.2,13.1 Z" id="Shape" fill-rule="nonzero"></path>
            <path d="M286.8,6.5 C286.8,5.6 286.7,5 286.6,4.7 C286.5,4.5 286.2,4.3 285.8,4.3 L285,4.3 C284.6,4.3 284.5,4.1 284.5,3.7 C284.5,3.5 284.5,3.3 284.6,3.2 C284.7,3.1 284.8,3.1 285,3.1 C285,3.1 285.2,3.1 285.4,3.1 C286.5,3.2 287.6,3.2 288.8,3.2 C289.5,3.2 290.6,3.2 292,3.1 C293.5,3.1 294.6,3 295.3,3 C296.6,3 297.6,3.1 298.3,3.3 C299,3.5 299.6,3.7 300.2,4.1 C301.2,4.8 302,5.8 302.4,7 C302.9,8.2 303.1,9.9 303.1,11.9 C303.1,14.1 302.9,15.8 302.5,17.2 C302.1,18.6 301.5,19.7 300.6,20.5 C300,21.1 299.2,21.5 298.3,21.8 C297.4,22.1 295.8,22.2 293.7,22.2 C293.1,22.2 292.2,22.2 291.1,22.1 C289.9,22.1 289,22 288.4,22 C287.5,22 286.6,22 285.6,22.1 C285.3,22.1 285.2,22.1 285.1,22.1 C284.9,22.1 284.7,22.1 284.7,22 C284.6,21.9 284.6,21.8 284.6,21.5 C284.6,21.2 284.8,21 285.1,20.9 C285.1,20.9 285.2,20.9 285.2,20.9 L285.9,20.8 C286.3,20.8 286.6,20.6 286.7,20.4 C286.8,20.2 286.9,19.6 286.9,18.6 L286.9,6.5 L286.8,6.5 Z M290.9,4.4 C290.9,4.8 290.9,5.2 290.8,5.7 C290.8,6.1 290.8,6.6 290.8,7 L290.8,18.2 C290.8,18.7 290.8,19.1 290.8,19.6 C290.8,20 290.8,20.5 290.9,21 L291,21 C291.7,21.1 292.2,21.1 292.5,21.1 C294.7,21.1 296.3,20.4 297.3,19.1 C298.3,17.8 298.8,15.6 298.8,12.7 C298.8,9.6 298.3,7.5 297.4,6.2 C296.5,5 294.9,4.3 292.7,4.3 C292.2,4.3 291.9,4.3 291.6,4.3 C291.4,4.4 291.1,4.4 290.9,4.4 Z" id="Shape" fill-rule="nonzero"></path>
            <path d="M100.6,42.3 L101.2,42.3 C101.5,42.3 101.7,42.6 101.8,43.1 C101.8,43.3 101.8,43.4 101.9,43.5 C102.1,44.5 102.4,45.2 102.9,45.6 C103.4,46 104.1,46.3 105,46.3 C106.1,46.3 106.9,46 107.6,45.5 C108.2,45 108.5,44.2 108.5,43.3 C108.5,42.9 108.4,42.6 108.3,42.3 C108.2,42 108,41.7 107.8,41.5 C107.3,41.1 106.4,40.7 104.9,40.3 C104.5,40.2 104.2,40.1 104,40 C102.7,39.6 101.7,39 101,38.3 C100.4,37.6 100,36.7 100,35.7 C100,34.2 100.5,33.1 101.6,32.2 C102.7,31.3 104.2,30.9 106,30.9 C106.7,30.9 107.5,31 108.2,31.1 C108.9,31.2 109.7,31.4 110.4,31.6 C110.6,31.6 110.7,31.7 110.8,31.8 C110.9,31.9 110.9,32 110.9,32.1 C110.9,32.2 110.9,32.5 110.9,32.9 C110.9,33.3 110.9,33.7 110.9,34.1 C110.9,34.2 110.9,34.3 110.9,34.5 C110.9,34.7 110.9,34.8 110.9,34.9 C110.9,35 110.9,35.1 110.8,35.2 C110.7,35.2 110.6,35.3 110.4,35.3 L109.7,35.3 C109.4,35.3 109.2,35.1 109.1,34.6 C109.1,34.5 109.1,34.5 109.1,34.5 C109,33.6 108.7,33 108.2,32.5 C107.7,32.1 107,31.9 106.1,31.9 C105.2,31.9 104.5,32.1 104,32.6 C103.5,33.1 103.2,33.7 103.2,34.4 C103.2,34.7 103.3,35 103.4,35.3 C103.5,35.6 103.7,35.9 103.9,36.1 C104.3,36.5 105.2,36.9 106.5,37.2 C106.8,37.3 107,37.3 107.2,37.4 C108.9,37.9 110.1,38.4 110.7,39.1 C111.3,39.8 111.7,40.8 111.7,42 C111.7,43.7 111.1,45 110,45.9 C108.8,46.8 107.2,47.3 105,47.3 C104.2,47.3 103.4,47.2 102.6,47.1 C101.8,47 101.1,46.8 100.4,46.6 C100.2,46.5 100,46.3 100,46 C100,45.9 100,45.8 100,45.5 C100,45.3 100,45 100,44.9 C100,44.3 100,43.7 99.9,43 C99.9,42.8 99.9,42.8 99.9,42.7 C99.9,42.6 99.9,42.5 100,42.4 C100.2,42.3 100.3,42.3 100.6,42.3" id="Path"></path>
            <path d="M116.2,44.1 L116.2,33.9 C116.2,33.1 116.1,32.6 116,32.4 C115.9,32.2 115.7,32.1 115.4,32.1 L114.8,32.1 C114.5,32.1 114.4,31.9 114.4,31.6 C114.4,31.4 114.4,31.3 114.5,31.2 C114.6,31.1 114.7,31.1 114.9,31.1 C114.9,31.1 115,31.1 115.2,31.1 C116.4,31.2 117.7,31.2 119,31.2 C121.2,31.2 123.3,31.2 125.3,31.1 C125.6,31.1 125.8,31.1 125.8,31.1 L126.4,31.1 C126.6,31.1 126.7,31.1 126.7,31.2 C126.8,31.3 126.8,31.4 126.8,31.6 C126.8,31.6 126.8,31.7 126.8,31.8 C126.8,32.3 126.8,32.9 126.8,33.4 C126.8,33.7 126.8,34 126.8,34.4 C126.8,34.5 126.8,34.5 126.8,34.5 C126.8,34.6 126.8,34.7 126.7,34.7 C126.6,34.8 126.5,34.8 126.4,34.8 L125.7,34.8 C125.4,34.8 125.2,34.6 125.1,34.2 C125.1,34.1 125.1,34 125,33.9 C124.8,33.1 124.5,32.6 124.2,32.4 C123.9,32.2 123.3,32.1 122.4,32.1 L119.7,32.1 C119.7,32.5 119.6,32.9 119.6,33.3 C119.6,33.7 119.6,34 119.6,34.3 L119.6,38 C119.7,38 119.8,38 119.9,38 C120,38 120.2,38 120.4,38 C121,38 121.5,37.9 121.7,37.8 C122,37.6 122.2,37.4 122.3,37 C122.4,36.8 122.4,36.6 122.4,36.3 C122.4,36 122.6,35.8 122.9,35.8 L123.5,35.8 C123.7,35.8 123.8,35.8 123.8,35.9 C123.9,35.9 123.9,36 123.9,36.1 C123.9,36.1 123.9,36.2 123.9,36.2 C123.9,36.4 123.9,36.7 123.9,36.9 L123.9,38.6 L123.9,39.9 C123.9,40.3 123.9,40.7 123.9,41 L123.9,41.1 C123.9,41.2 123.9,41.2 123.8,41.3 C123.7,41.3 123.6,41.3 123.5,41.3 L123,41.3 C122.7,41.3 122.6,41.1 122.5,40.8 C122.5,40.5 122.4,40.3 122.4,40.1 C122.3,39.7 122.1,39.4 121.8,39.3 C121.5,39.1 121.1,39.1 120.5,39.1 C120.3,39.1 120.1,39.1 120,39.1 C119.9,39.1 119.8,39.1 119.7,39.1 L119.7,43.5 C119.7,43.8 119.7,44.4 119.7,45.3 C119.7,45.6 119.7,45.9 119.7,46 C119.8,46 120,46.1 120.1,46.1 C120.2,46.1 120.4,46.1 120.6,46.1 L122.4,46.1 C123.4,46.1 124,46 124.3,45.8 C124.6,45.6 124.9,45 125.1,44 C125.1,43.8 125.2,43.6 125.2,43.4 C125.3,43 125.4,42.7 125.7,42.7 L126.5,42.7 C126.6,42.7 126.7,42.7 126.8,42.8 C126.9,42.9 126.9,43 126.9,43.2 L126.9,46.5 C126.9,46.8 126.9,47 126.8,47 C126.7,47.1 126.6,47.1 126.5,47.1 L126,47.1 C126,47.1 125.8,47.1 125.6,47.1 C123.6,47 121.5,47 119.3,47 C117.9,47 116.5,47 115.2,47.1 C115,47.1 114.9,47.1 114.9,47.1 C114.7,47.1 114.6,47.1 114.5,47 C114.4,46.9 114.4,46.8 114.4,46.6 C114.4,46.3 114.5,46.2 114.8,46.1 C114.8,46.1 114.9,46.1 114.9,46.1 L115.5,46.1 C115.8,46.1 116,46 116.1,45.8 C116.2,45.6 116.3,45.2 116.3,44.5 L116.3,44.1 L116.2,44.1 Z" id="Path"></path>
            <path d="M131.3,40.9 L131.3,33.5 C131.3,33.2 131.2,32.8 131.1,32.6 C130.9,32.3 130.7,32.2 130.5,32.2 L129.9,32.2 C129.6,32.2 129.5,32 129.5,31.7 C129.5,31.5 129.5,31.4 129.6,31.3 C129.7,31.2 129.8,31.2 130,31.2 C130,31.2 130.3,31.2 130.7,31.2 C131.2,31.2 131.6,31.2 132.1,31.2 C132.4,31.2 132.8,31.2 133.1,31.2 C133.5,31.2 133.7,31.2 133.8,31.2 C134,31.2 134.1,31.2 134.1,31.2 C134.2,31.2 134.2,31.2 134.2,31.3 C134.2,31.3 134.3,31.4 134.4,31.5 C134.8,32.1 135.2,32.7 135.7,33.3 L143.2,43.1 C143.2,42.8 143.2,42.3 143.2,41.7 C143.2,37.8 143.1,35.5 143.1,34.7 C143.1,33.7 143,33.1 142.8,32.7 C142.6,32.4 142.4,32.2 142,32.2 L141.4,32.2 C141.4,32.2 141.4,32.2 141.3,32.2 C141.1,32.2 141,32 141,31.7 C141,31.5 141,31.4 141.1,31.3 C141.2,31.2 141.3,31.2 141.5,31.2 C141.6,31.2 141.8,31.2 142.3,31.2 C142.8,31.2 143.3,31.2 143.7,31.2 C144.1,31.2 144.6,31.2 145.1,31.2 C145.6,31.2 145.8,31.2 145.9,31.2 C146.1,31.2 146.2,31.2 146.3,31.3 C146.4,31.4 146.4,31.5 146.4,31.7 C146.4,32 146.3,32.1 146.1,32.2 C146,32.2 146,32.2 146,32.2 L145.6,32.3 C145.3,32.3 145.1,32.5 145,32.7 C144.8,32.9 144.7,33.2 144.7,33.6 C144.7,34 144.6,34.9 144.6,36.3 C144.6,37.7 144.5,39.2 144.5,40.9 C144.5,42.7 144.5,44.4 144.6,46.1 C144.6,46.4 144.6,46.5 144.6,46.6 C144.6,46.8 144.6,47 144.5,47 C144.5,47.1 144.4,47.1 144.2,47.1 C144.2,47.1 144,47.1 143.9,47.1 C143.7,47.1 143.5,47.1 143.4,47.1 C143.4,47.1 143.4,47.1 143.3,47.1 C143.3,47.1 143.2,47.1 143.2,47.1 C143.1,47.1 142.9,47.1 142.7,47.1 C142.5,47.1 142.4,47.1 142.3,47.1 C142,47.1 141.7,46.7 141.1,45.9 C140.7,45.2 140.3,44.6 139.9,44.2 L132.7,34.5 C132.7,35.4 132.7,36.5 132.7,38 C132.7,40.9 132.8,42.7 132.8,43.5 C132.8,44.5 132.9,45.1 133.1,45.5 C133.3,45.8 133.5,46 133.9,46 L134.4,46 C134.4,46 134.4,46 134.5,46 C134.7,46 134.8,46.2 134.8,46.5 C134.8,46.7 134.8,46.8 134.7,46.9 C134.7,47 134.5,47 134.4,47 C134.4,47 134.1,47 133.6,47 C133.1,47 132.6,47 132.2,47 C131.8,47 131.3,47 130.8,47 C130.3,47 130,47 130,47 C129.8,47 129.7,47 129.7,46.9 C129.7,46.9 129.6,46.7 129.6,46.5 C129.6,46.2 129.7,46.1 129.9,46 C130,46 130,46 130,46 L130.5,45.9 C131.2,45.8 131.5,44.3 131.6,41.5 L131.6,40.9 L131.3,40.9 Z M141,25.9 C140.9,26.8 140.6,27.5 140.2,27.9 C139.8,28.4 139.3,28.6 138.7,28.6 C138.6,28.6 138.4,28.6 138.1,28.5 C138.1,28.5 138,28.5 138,28.5 L136.8,28.2 C136.7,28.2 136.6,28.2 136.5,28.2 C136.4,28.2 136.3,28.2 136.1,28.2 C135.9,28.2 135.7,28.3 135.5,28.4 C135.3,28.6 135.2,28.8 135.1,29.1 L134.4,29.1 C134.5,28.2 134.8,27.5 135.2,27 C135.6,26.5 136.1,26.3 136.8,26.3 C136.9,26.3 137,26.3 137.2,26.3 C137.3,26.3 137.4,26.3 137.6,26.4 L138.8,26.7 C138.9,26.7 138.9,26.7 139,26.7 C139.1,26.7 139.1,26.7 139.3,26.7 C139.5,26.7 139.7,26.6 139.9,26.5 C140.1,26.3 140.2,26.1 140.3,25.8 L141,25.8 L141,25.9 Z" id="Shape" fill-rule="nonzero"></path>
            <path d="M148.7,39 C148.7,37.3 148.9,35.9 149.2,34.9 C149.5,33.9 150.1,33.1 150.9,32.4 C151.5,31.9 152.3,31.5 153.3,31.2 C154.3,30.9 155.4,30.8 156.7,30.8 C157.9,30.8 159,30.9 160.1,31.2 C161.1,31.5 161.9,31.9 162.5,32.4 C163.3,33.1 163.8,33.9 164.2,34.9 C164.5,35.9 164.7,37.3 164.7,39 C164.7,40.7 164.5,42.1 164.2,43.1 C163.9,44.1 163.3,45 162.5,45.6 C161.9,46.1 161.1,46.5 160.1,46.8 C159.1,47.1 158,47.2 156.7,47.2 C155.5,47.2 154.4,47.1 153.3,46.8 C152.3,46.5 151.5,46.1 150.9,45.6 C150.1,44.9 149.6,44.1 149.2,43.1 C148.9,42.1 148.7,40.8 148.7,39 M152.3,39 C152.3,40.8 152.4,42 152.5,42.8 C152.6,43.6 152.9,44.2 153.2,44.6 C153.6,45.2 154,45.6 154.6,45.8 C155.2,46.1 155.8,46.2 156.6,46.2 C157.4,46.2 158.1,46.1 158.6,45.8 C159.2,45.5 159.6,45.1 160,44.6 C160.3,44.1 160.5,43.5 160.7,42.8 C160.8,42 160.9,40.8 160.9,39 C160.9,37.2 160.8,35.9 160.7,35.2 C160.6,34.5 160.3,33.8 160,33.4 C159.6,32.9 159.2,32.5 158.6,32.2 C158,31.9 157.4,31.8 156.6,31.8 C155.8,31.8 155.2,31.9 154.6,32.2 C154,32.5 153.6,32.9 153.2,33.4 C152.9,33.9 152.7,34.5 152.5,35.3 C152.4,36 152.3,37.3 152.3,39" id="Shape" fill-rule="nonzero"></path>
            <path d="M168.9,44.1 L168.9,33.9 C168.9,33.1 168.8,32.6 168.7,32.4 C168.6,32.2 168.4,32.1 168.1,32.1 L167.5,32.1 C167.2,32.1 167.1,31.9 167.1,31.6 C167.1,31.4 167.1,31.3 167.2,31.2 C167.3,31.1 167.4,31.1 167.6,31.1 C167.6,31.1 167.8,31.1 168,31.1 C168.8,31.2 169.6,31.2 170.4,31.2 C171,31.2 171.8,31.2 173.1,31.1 C174.3,31.1 175.3,31 175.9,31 C177.3,31 178.4,31.3 179,31.8 C179.7,32.3 180,33.2 180,34.4 C180,35.6 179.7,36.6 179.1,37.2 C178.5,37.8 177.4,38.3 176,38.5 L179.5,43.6 C180,44.4 180.4,45 180.8,45.3 C181.1,45.6 181.4,45.8 181.7,45.8 L182,45.8 C182.2,45.8 182.2,45.9 182.3,45.9 C182.3,45.9 182.3,46.1 182.3,46.3 C182.3,46.5 182.3,46.6 182.2,46.7 C182.2,46.8 182,46.8 181.8,46.8 C181.8,46.8 181.7,46.8 181.5,46.8 C180.9,46.7 180.3,46.7 179.7,46.7 C179.1,46.7 178.4,46.7 177.8,46.8 C177.7,46.8 177.6,46.8 177.6,46.8 C177.4,46.8 177.2,46.5 177,46 C176.7,45.4 176.4,44.8 176.1,44.3 L172.5,38.6 L172.4,38.6 L172.4,44.1 C172.4,44.8 172.5,45.2 172.6,45.4 C172.7,45.6 172.9,45.7 173.2,45.7 L173.8,45.7 C173.8,45.7 173.8,45.7 173.9,45.7 C174.1,45.7 174.3,45.9 174.3,46.2 C174.3,46.4 174.3,46.5 174.2,46.6 C174.1,46.7 174,46.7 173.8,46.7 C173.8,46.7 173.7,46.7 173.5,46.7 C172.6,46.6 171.6,46.6 170.7,46.6 C169.8,46.6 168.8,46.6 167.9,46.7 C167.7,46.7 167.6,46.7 167.6,46.7 C167.4,46.7 167.3,46.7 167.2,46.6 C167.1,46.5 167.1,46.4 167.1,46.2 C167.1,45.9 167.2,45.8 167.5,45.7 C167.5,45.7 167.6,45.7 167.6,45.7 L168.2,45.7 C168.5,45.7 168.7,45.6 168.8,45.4 C168.9,45.2 169,44.8 169,44.1 L168.9,44.1 Z M172.3,38.3 L172.5,38.3 C173.8,38.3 174.8,38 175.4,37.5 C176,37 176.3,36.1 176.3,35 C176.3,34 176,33.2 175.5,32.8 C175,32.3 174.2,32.1 173.1,32.1 C172.9,32.1 172.7,32.1 172.3,32.1 C172.2,32.1 172.2,32.1 172.2,32.1 C172.2,32.3 172.2,32.4 172.2,32.6 C172.2,32.8 172.2,33 172.2,33.3 L172.2,38.3 L172.3,38.3 Z" id="Shape" fill-rule="nonzero"></path>
            <path d="M193.1,33.9 C193.1,33.1 193,32.6 192.9,32.4 C192.8,32.2 192.6,32.1 192.2,32.1 L191.6,32.1 C191.3,32.1 191.2,31.9 191.2,31.6 C191.2,31.4 191.2,31.3 191.3,31.2 C191.4,31.1 191.5,31.1 191.7,31.1 C191.7,31.1 191.8,31.1 192,31.1 C192.9,31.2 193.8,31.2 194.8,31.2 C195.4,31.2 196.3,31.2 197.5,31.2 C198.7,31.2 199.6,31.2 200.3,31.2 C201.4,31.2 202.2,31.3 202.8,31.4 C203.4,31.5 203.9,31.8 204.3,32.1 C205.1,32.7 205.8,33.5 206.1,34.5 C206.5,35.5 206.7,36.9 206.7,38.5 C206.7,40.3 206.5,41.7 206.2,42.9 C205.9,44 205.4,44.9 204.6,45.6 C204.1,46.1 203.4,46.5 202.7,46.7 C201.9,46.9 200.7,47 198.9,47 C198.4,47 197.7,47 196.7,47 C195.7,47 195,47 194.5,47 C193.8,47 193,47 192.2,47.1 C192,47.1 191.8,47.1 191.8,47.1 C191.6,47.1 191.5,47.1 191.4,47 C191.3,46.9 191.3,46.8 191.3,46.6 C191.3,46.3 191.4,46.2 191.7,46.1 C191.7,46.1 191.8,46.1 191.8,46.1 L192.4,46.1 C192.7,46.1 192.9,46 193.1,45.8 C193.2,45.6 193.3,45.1 193.3,44.3 L193.3,33.9 L193.1,33.9 Z M196.5,32.2 C196.5,32.5 196.5,32.9 196.4,33.2 C196.4,33.6 196.4,33.9 196.4,34.2 L196.4,43.5 C196.4,43.9 196.4,44.3 196.4,44.6 C196.4,45 196.4,45.3 196.5,45.8 L196.6,45.8 C197.2,45.9 197.6,45.9 197.9,45.9 C199.7,45.9 201,45.4 201.9,44.3 C202.7,43.2 203.1,41.4 203.1,39 C203.1,36.5 202.7,34.7 202,33.7 C201.2,32.7 200,32.2 198.1,32.2 C197.7,32.2 197.4,32.2 197.2,32.2 C196.9,32.2 196.7,32.2 196.5,32.2 Z" id="Shape" fill-rule="nonzero"></path>
            <path d="M211.1,44.1 L211.1,33.9 C211.1,33.1 211,32.6 210.9,32.4 C210.8,32.2 210.6,32.1 210.3,32.1 L209.7,32.1 C209.4,32.1 209.3,31.9 209.3,31.6 C209.3,31.4 209.3,31.3 209.4,31.2 C209.5,31.1 209.6,31.1 209.8,31.1 C209.8,31.1 209.9,31.1 210.1,31.1 C211.3,31.2 212.6,31.2 213.9,31.2 C216.1,31.2 218.2,31.2 220.2,31.1 C220.5,31.1 220.7,31.1 220.7,31.1 L221.3,31.1 C221.5,31.1 221.6,31.1 221.6,31.2 C221.7,31.3 221.7,31.4 221.7,31.6 C221.7,31.6 221.7,31.7 221.7,31.8 C221.7,32.3 221.7,32.9 221.7,33.4 C221.7,33.7 221.7,34 221.7,34.4 C221.7,34.5 221.7,34.5 221.7,34.5 C221.7,34.6 221.7,34.7 221.6,34.7 C221.5,34.8 221.4,34.8 221.3,34.8 L220.6,34.8 C220.3,34.8 220.1,34.6 220,34.2 C220,34.1 220,34 219.9,33.9 C219.7,33.1 219.4,32.6 219.1,32.4 C218.8,32.2 218.2,32.1 217.3,32.1 L214.6,32.1 C214.6,32.5 214.5,32.9 214.5,33.3 C214.5,33.7 214.5,34 214.5,34.3 L214.5,38 C214.6,38 214.7,38 214.8,38 C214.9,38 215.1,38 215.3,38 C215.9,38 216.4,37.9 216.6,37.8 C216.9,37.6 217.1,37.4 217.2,37 C217.3,36.8 217.3,36.6 217.3,36.3 C217.3,36 217.5,35.8 217.8,35.8 L218.4,35.8 C218.6,35.8 218.7,35.8 218.7,35.9 C218.8,35.9 218.8,36 218.8,36.1 C218.8,36.1 218.8,36.2 218.8,36.2 C218.8,36.4 218.8,36.7 218.8,36.9 L218.8,38.6 L218.8,39.9 C218.8,40.3 218.8,40.7 218.8,41 L218.8,41.1 C218.8,41.2 218.8,41.2 218.7,41.3 C218.6,41.3 218.5,41.3 218.4,41.3 L217.8,41.3 C217.5,41.3 217.4,41.1 217.3,40.8 C217.3,40.5 217.2,40.3 217.2,40.1 C217.1,39.7 216.9,39.4 216.6,39.3 C216.3,39.1 215.9,39.1 215.3,39.1 C215.1,39.1 214.9,39.1 214.8,39.1 C214.7,39.1 214.6,39.1 214.5,39.1 L214.5,43.5 C214.5,43.8 214.5,44.4 214.5,45.3 C214.5,45.6 214.5,45.9 214.5,46 C214.6,46 214.8,46.1 214.9,46.1 C215,46.1 215.2,46.1 215.4,46.1 L217.2,46.1 C218.2,46.1 218.8,46 219.1,45.8 C219.4,45.6 219.7,45 219.9,44 C219.9,43.8 220,43.6 220,43.4 C220.1,43 220.3,42.7 220.5,42.7 L221.3,42.7 C221.4,42.7 221.5,42.7 221.6,42.8 C221.7,42.9 221.7,43 221.7,43.2 L221.7,46.5 C221.7,46.8 221.7,47 221.6,47 C221.5,47.1 221.4,47.1 221.3,47.1 L220.9,47.1 C220.9,47.1 220.7,47.1 220.5,47.1 C218.5,47 216.4,47 214.2,47 C212.8,47 211.4,47 210.1,47.1 C209.9,47.1 209.8,47.1 209.8,47.1 C209.6,47.1 209.5,47.1 209.4,47 C209.3,46.9 209.3,46.8 209.3,46.6 C209.3,46.3 209.4,46.2 209.7,46.1 C209.7,46.1 209.8,46.1 209.8,46.1 L210.4,46.1 C210.7,46.1 210.9,46 211,45.8 C211.1,45.6 211.2,45.2 211.2,44.5 L211.2,44.1 L211.1,44.1 Z" id="Path"></path>
            <path d="M232.8,42.3 L233.4,42.3 C233.7,42.3 233.9,42.6 234,43.1 C234,43.3 234,43.4 234.1,43.5 C234.3,44.5 234.6,45.2 235.1,45.6 C235.6,46 236.3,46.3 237.2,46.3 C238.3,46.3 239.1,46 239.8,45.5 C240.4,45 240.7,44.2 240.7,43.3 C240.7,42.9 240.6,42.6 240.5,42.3 C240.4,42 240.2,41.7 240,41.5 C239.5,41.1 238.6,40.7 237.1,40.3 C236.7,40.2 236.4,40.1 236.2,40 C234.9,39.6 233.9,39 233.2,38.3 C232.6,37.6 232.3,36.7 232.3,35.7 C232.3,34.2 232.8,33.1 233.9,32.2 C235,31.3 236.5,30.9 238.3,30.9 C239,30.9 239.8,31 240.5,31.1 C241.2,31.2 241.9,31.4 242.6,31.6 C242.8,31.6 242.9,31.7 243,31.8 C243.1,31.9 243.1,32 243.1,32.1 C243.1,32.2 243.1,32.5 243.1,32.9 C243.1,33.3 243.1,33.7 243.1,34.1 C243.1,34.2 243.1,34.3 243.1,34.5 C243.1,34.7 243.1,34.8 243.1,34.9 C243.1,35 243.1,35.1 243,35.2 C242.9,35.2 242.8,35.3 242.6,35.3 L241.9,35.3 C241.6,35.3 241.4,35.1 241.3,34.6 C241.3,34.5 241.3,34.5 241.3,34.5 C241.2,33.6 240.9,33 240.4,32.5 C239.9,32.1 239.2,31.9 238.3,31.9 C237.4,31.9 236.7,32.1 236.2,32.6 C235.7,33.1 235.4,33.7 235.4,34.4 C235.4,34.7 235.5,35 235.6,35.3 C235.7,35.6 235.9,35.9 236.1,36.1 C236.5,36.5 237.4,36.9 238.7,37.2 C239,37.3 239.2,37.3 239.4,37.4 C241.1,37.9 242.3,38.4 242.9,39.1 C243.5,39.8 243.9,40.8 243.9,42 C243.9,43.7 243.3,45 242.2,45.9 C241.1,46.8 239.4,47.3 237.2,47.3 C236.4,47.3 235.6,47.2 234.8,47.1 C234,47 233.3,46.8 232.6,46.6 C232.4,46.5 232.2,46.3 232.2,46 C232.2,45.9 232.2,45.8 232.2,45.5 C232.2,45.3 232.2,45 232.2,44.9 C232.2,44.3 232.2,43.7 232.1,43 C232.1,42.8 232.1,42.8 232.1,42.7 C232.1,42.6 232.1,42.5 232.2,42.4 C232.5,42.3 232.6,42.3 232.8,42.3" id="Path"></path>
            <path d="M248.6,44.1 L248.6,33.9 C248.6,33.1 248.5,32.6 248.4,32.4 C248.3,32.2 248.1,32.1 247.8,32.1 L247.2,32.1 C246.9,32.1 246.8,31.9 246.8,31.6 C246.8,31.4 246.8,31.3 246.9,31.2 C247,31.1 247.1,31.1 247.3,31.1 C247.3,31.1 247.4,31.1 247.6,31.1 C248.6,31.2 249.5,31.2 250.5,31.2 C251.4,31.2 252.4,31.2 253.3,31.1 C253.5,31.1 253.6,31.1 253.6,31.1 C253.8,31.1 253.9,31.1 254,31.2 C254.1,31.3 254.1,31.4 254.1,31.6 C254.1,31.9 254,32.1 253.7,32.1 L253.1,32.1 C252.8,32.1 252.6,32.2 252.5,32.4 C252.4,32.6 252.3,33.1 252.3,33.9 L252.3,44.3 C252.3,45 252.4,45.4 252.5,45.6 C252.6,45.8 252.8,45.9 253.1,45.9 L253.7,45.9 C253.7,45.9 253.7,45.9 253.8,45.9 C254,45.9 254.2,46.1 254.2,46.4 C254.2,46.6 254.2,46.7 254.1,46.8 C254,46.9 253.9,46.9 253.7,46.9 C253.7,46.9 253.6,46.9 253.4,46.9 C252.5,46.8 251.5,46.8 250.6,46.8 C249.6,46.8 248.7,46.8 247.7,46.9 C247.5,46.9 247.4,46.9 247.4,46.9 C247.2,46.9 247.1,46.9 247,46.8 C246.9,46.7 246.9,46.6 246.9,46.4 C246.9,46.1 247,46 247.3,45.9 C247.3,45.9 247.4,45.9 247.4,45.9 L248,45.9 C248.3,45.9 248.5,45.8 248.6,45.6 C248.7,45.4 248.8,45 248.8,44.3 L248.8,44.1 L248.6,44.1 Z" id="Path"></path>
            <path d="M258.1,44.1 L258.1,33.9 C258.1,33.1 258,32.6 257.9,32.4 C257.8,32.2 257.6,32.1 257.3,32.1 L256.7,32.1 C256.4,32.1 256.3,31.9 256.3,31.6 C256.3,31.4 256.3,31.3 256.4,31.2 C256.5,31.1 256.6,31.1 256.8,31.1 C256.8,31.1 256.9,31.1 257.1,31.1 C258.1,31.2 259,31.2 259.9,31.2 C260.5,31.2 261.4,31.2 262.4,31.2 C263.4,31.2 264.1,31.2 264.5,31.2 C266.3,31.2 267.5,31.5 268.1,32.1 C268.8,32.7 269.1,33.8 269.1,35.3 C269.1,37.2 268.6,38.5 267.7,39.3 C266.7,40.1 265.1,40.5 262.8,40.5 C262.5,40.5 262.3,40.5 262.1,40.5 C261.9,40.5 261.8,40.5 261.7,40.5 L261.7,44.2 C261.7,45 261.8,45.5 261.9,45.7 C262,45.9 262.2,46 262.5,46 L263.3,46 C263.6,46 263.7,46.2 263.7,46.5 C263.7,46.7 263.7,46.8 263.6,46.9 C263.5,47 263.4,47 263.2,47 C263.2,47 263.1,47 262.9,47 C261.9,46.9 260.9,46.9 259.9,46.9 C259,46.9 258,46.9 257.1,47 C256.9,47 256.8,47 256.8,47 C256.6,47 256.5,47 256.4,46.9 C256.3,46.8 256.3,46.7 256.3,46.5 C256.3,46.2 256.4,46.1 256.7,46 C256.7,46 256.8,46 256.8,46 L257.4,46 C257.7,46 257.9,45.9 258,45.7 C258.1,45.5 258.2,45.1 258.2,44.4 L258.2,44.1 L258.1,44.1 Z M261.5,39.3 C261.6,39.3 261.6,39.3 261.7,39.3 C261.8,39.3 261.9,39.3 262,39.3 C263.2,39.3 264,39 264.6,38.4 C265.2,37.8 265.4,36.8 265.4,35.4 C265.4,34.2 265.2,33.4 264.7,32.9 C264.2,32.4 263.4,32.1 262.3,32.1 C262.2,32.1 262.1,32.1 262,32.1 C261.9,32.1 261.7,32.1 261.5,32.1 C261.5,32.2 261.5,32.3 261.5,32.5 C261.5,32.7 261.5,32.9 261.5,33.3 L261.5,39.3 Z" id="Shape" fill-rule="nonzero"></path>
            <path d="M273.2,42.8 L277.4,31.6 C277.4,31.6 277.4,31.5 277.4,31.5 C277.5,31.2 277.7,31 277.8,31 L277.9,31 C278.2,31 278.4,31.1 278.7,31.1 C279,31.1 279.2,31.1 279.5,31 L279.6,31 C279.8,31 279.9,31.1 280,31.4 C280,31.5 280,31.5 280,31.5 L284,42.9 C284.4,44 284.7,44.7 284.9,45.1 C285.2,45.5 285.5,45.8 285.8,45.8 L286.2,45.9 C286.2,45.9 286.3,45.9 286.3,45.9 C286.4,45.9 286.5,45.9 286.5,45.9 C286.5,45.9 286.5,45.9 286.6,46 C286.6,46.1 286.6,46.2 286.6,46.3 C286.6,46.5 286.6,46.6 286.5,46.7 C286.4,46.8 286.3,46.8 286.1,46.8 C286.1,46.8 286,46.8 285.8,46.8 C284.8,46.7 283.8,46.7 282.8,46.7 C281.8,46.7 280.8,46.7 279.8,46.8 C279.6,46.8 279.5,46.8 279.5,46.8 C279.3,46.8 279.2,46.8 279.1,46.7 C279,46.6 279,46.5 279,46.3 C279,46.1 279,46 279.1,45.9 C279.1,45.9 279.3,45.8 279.5,45.8 L279.9,45.8 C280.3,45.8 280.5,45.7 280.7,45.5 C280.9,45.3 281,45.1 281,44.8 C281,44.6 281,44.4 280.9,44.1 C280.8,43.9 280.8,43.6 280.7,43.3 L279.6,40.2 L275.1,40.2 L273.9,43.8 C273.8,44 273.8,44.1 273.8,44.3 C273.8,44.4 273.8,44.6 273.8,44.7 C273.8,45 273.9,45.2 274.1,45.4 C274.3,45.6 274.5,45.7 274.8,45.7 L275.3,45.7 C275.6,45.7 275.7,45.9 275.7,46.2 C275.7,46.4 275.7,46.5 275.6,46.6 C275.5,46.7 275.4,46.7 275.2,46.7 C275.1,46.7 275,46.7 274.8,46.7 C274,46.7 273.3,46.6 272.7,46.6 C272.1,46.6 271.4,46.6 270.6,46.7 C270.4,46.7 270.2,46.7 270.2,46.7 C270,46.7 269.9,46.7 269.8,46.6 C269.7,46.5 269.7,46.4 269.7,46.2 C269.7,45.9 269.8,45.7 270.1,45.7 L270.5,45.7 C271,45.7 271.4,45.4 271.7,45 C272.3,44.9 272.7,44 273.2,42.8 Z M275.6,39.4 L279.5,39.4 L277.6,33.9 L277.4,33.9 L275.6,39.4 Z M276.7,29.6 L279.8,26.4 C280.1,26.1 280.4,25.8 280.6,25.7 C280.8,25.6 281.1,25.5 281.3,25.5 C281.6,25.5 281.8,25.6 282,25.8 C282.2,26 282.3,26.2 282.3,26.5 C282.3,26.7 282.2,26.9 282.1,27.1 C282,27.3 281.7,27.5 281.2,27.7 L277.7,29.6 L276.7,29.6 Z" id="Shape" fill-rule="nonzero"></path>
            <path d="M290.2,40.9 L290.2,33.5 C290.2,33.1 290.1,32.8 290,32.6 C289.8,32.3 289.6,32.2 289.4,32.2 L288.8,32.2 C288.5,32.2 288.4,32 288.4,31.7 C288.4,31.5 288.4,31.4 288.5,31.3 C288.6,31.2 288.7,31.2 288.9,31.2 C288.9,31.2 289.1,31.2 289.6,31.2 C290.1,31.2 290.5,31.2 291,31.2 C291.3,31.2 291.7,31.2 292,31.2 C292.4,31.2 292.6,31.2 292.7,31.2 C292.9,31.2 293,31.2 293,31.2 C293.1,31.2 293.1,31.2 293.1,31.3 C293.1,31.3 293.2,31.4 293.3,31.5 C293.7,32.1 294.1,32.7 294.6,33.3 L302.1,43.1 C302.1,42.8 302.1,42.3 302.1,41.7 C302.1,37.8 302,35.5 302,34.7 C302,33.7 301.9,33.1 301.7,32.7 C301.5,32.4 301.3,32.2 300.9,32.2 L300.3,32.2 C300.3,32.2 300.3,32.2 300.2,32.2 C300,32.2 299.8,32 299.8,31.7 C299.8,31.5 299.8,31.4 299.9,31.3 C299.9,31.2 300.1,31.2 300.3,31.2 C300.4,31.2 300.6,31.2 301.1,31.2 C301.6,31.2 302.1,31.2 302.5,31.2 C302.9,31.2 303.4,31.2 303.9,31.2 C304.4,31.2 304.6,31.2 304.7,31.2 C304.9,31.2 305,31.2 305.1,31.3 C305.2,31.4 305.2,31.5 305.2,31.7 C305.2,32 305.1,32.1 304.9,32.2 C304.8,32.2 304.8,32.2 304.8,32.2 L304.4,32.3 C304.1,32.3 303.9,32.5 303.8,32.7 C303.6,32.9 303.5,33.2 303.5,33.6 C303.5,34 303.4,34.9 303.4,36.3 C303.4,37.7 303.3,39.2 303.3,40.9 C303.3,42.7 303.3,44.4 303.4,46.1 C303.4,46.4 303.4,46.5 303.4,46.6 C303.4,46.8 303.4,47 303.3,47 C303.3,47.1 303.2,47.1 303,47.1 C303,47.1 302.8,47.1 302.7,47.1 C302.5,47.1 302.3,47.1 302.2,47.1 C302.2,47.1 302.2,47.1 302.1,47.1 C302.1,47.1 302,47.1 302,47.1 C301.9,47.1 301.7,47.1 301.5,47.1 C301.3,47.1 301.2,47.1 301.1,47.1 C300.8,47.1 300.5,46.7 299.9,45.9 C299.5,45.2 299.1,44.6 298.7,44.2 L291.5,34.5 C291.5,35.4 291.5,36.5 291.5,38 C291.5,40.9 291.6,42.7 291.6,43.5 C291.6,44.5 291.7,45.1 291.9,45.5 C292.1,45.8 292.3,46 292.7,46 L293.2,46 C293.2,46 293.2,46 293.3,46 C293.5,46 293.6,46.2 293.6,46.5 C293.6,46.7 293.6,46.8 293.5,46.9 C293.4,47 293.3,47 293.2,47 C293.2,47 292.9,47 292.4,47 C291.9,47 291.4,47 291,47 C290.6,47 290.1,47 289.6,47 C289.1,47 288.8,47 288.8,47 C288.6,47 288.5,47 288.5,46.9 C288.5,46.9 288.4,46.7 288.4,46.5 C288.4,46.2 288.5,46.1 288.7,46 C288.8,46 288.8,46 288.8,46 L289.3,45.9 C290,45.8 290.3,44.3 290.4,41.5 L290.4,40.9 L290.2,40.9 Z" id="Path"></path>
        </g>
    </g>
</svg>